<svg width="856" height="861" viewBox="0 0 856 861" fill="none" xmlns="http://www.w3.org/2000/svg">
<path d="M-562 668C-28.0078 668 -345.008 26.4999 184.5 26.4999C718.492 26.4999 401.492 -615 931 -615" stroke="#FFF02A" stroke-width="75" stroke-linecap="round"/>
<path d="M-461.996 768C71.9961 768 -245.004 126.5 284.504 126.5C818.496 126.5 501.496 -515 1031 -515" stroke="#FFF02A" stroke-width="75" stroke-linecap="round"/>
<path d="M-362 868C171.992 868 -145.008 226.5 384.5 226.5C918.492 226.5 601.492 -415 1131 -415" stroke="#FFF02A" stroke-width="75" stroke-linecap="round"/>
<path d="M-261.996 968C271.996 968 -45.0039 326.5 484.504 326.5C1018.5 326.5 701.496 -315 1231 -315" stroke="#FFF02A" stroke-width="75" stroke-linecap="round"/>
<path d="M-162 1068C371.992 1068 54.9922 426.5 584.5 426.5C1118.49 426.5 801.492 -215 1331 -215" stroke="#FFF02A" stroke-width="75" stroke-linecap="round"/>
<path d="M-61.9961 1168C471.996 1168 154.996 526.5 684.504 526.5C1218.5 526.5 901.496 -115 1431 -115" stroke="#FFF02A" stroke-width="75" stroke-linecap="round"/>
<path d="M38 1268C571.992 1268 254.992 626.5 784.5 626.5C1318.49 626.5 1001.49 -15 1531 -15" stroke="#FFF02A" stroke-width="75" stroke-linecap="round"/>
<path d="M138.004 1368C671.996 1368 354.996 726.5 884.504 726.5C1418.5 726.5 1101.5 85.0003 1631 85.0003" stroke="#FFF02A" stroke-width="75" stroke-linecap="round"/>
</svg>
