<svg width="94" height="76" viewBox="0 0 94 76" fill="none" xmlns="http://www.w3.org/2000/svg">
<path fill-rule="evenodd" clip-rule="evenodd" d="M47.2513 74.525C47.8982 75.0613 48.7474 75.2877 49.5755 75.1445C50.4035 75.0014 51.1275 74.503 51.5568 73.7807L54.0674 69.5565C54.6895 69.9994 55.4655 70.1781 56.2237 70.047C57.0518 69.9039 57.7757 69.4055 58.2051 68.6832L66.2391 55.1657L77.2628 53.9075C80.9808 53.4832 84.0813 51.3301 85.8536 48.3418C90.9073 46.6643 94.271 41.628 93.6433 36.1273L90.7103 10.4239C89.9903 4.1147 84.2921 -0.416244 77.9829 0.303709L15.4561 7.43879C11.4276 7.8985 8.12412 10.3878 6.44961 13.7699C2.61816 15.9938 0.259549 20.3402 0.793944 25.0233L3.72702 50.7267C4.44697 57.0358 10.1452 61.5668 16.4543 60.8468L29.022 59.4127L47.2513 74.525ZM15.7514 10.2975L78.3106 3.15875C83.0425 2.61878 87.3162 6.01699 87.8561 10.7489L90.7892 36.4523C91.1718 39.8047 89.5776 42.9271 86.9329 44.6547C86.8648 44.6992 86.7961 44.7427 86.7267 44.7853C86.5866 44.8713 86.4437 44.9533 86.2983 45.0314C86.1662 45.1023 86.032 45.1699 85.8957 45.234C85.0659 45.6248 84.1592 45.8889 83.1973 45.9986L67.2651 47.816L55.7363 67.2136L55.7352 67.2127L55.7341 67.2146L36.5616 51.3204L20.6705 53.1337C20.6 53.1418 20.5296 53.1489 20.4594 53.1553C15.7998 53.5898 11.6274 50.2181 11.0943 45.5464L8.16127 19.843C7.6213 15.1112 11.0195 10.8375 15.7514 10.2975Z" fill="black"/>
<path fill-rule="evenodd" clip-rule="evenodd" d="M67.2651 47.816L83.1991 45.9978C84.1603 45.8881 85.0664 45.6243 85.8957 45.234C86.032 45.1699 86.1662 45.1023 86.2983 45.0314C86.4437 44.9533 86.5866 44.8713 86.7267 44.7853C86.7961 44.7427 86.8648 44.6992 86.9329 44.6547C89.5765 42.9268 91.1699 39.8049 90.7874 36.4532L87.8543 10.7498C87.3143 6.01789 83.0407 2.61968 78.3088 3.15964L15.782 10.2947C11.0502 10.8347 7.65195 15.1084 8.19191 19.8402L11.125 45.5436C11.6569 50.205 15.8122 53.5722 20.4594 53.1553C20.5195 53.1496 20.5796 53.1434 20.6398 53.1365L36.5638 51.3194L55.7352 67.2127L67.263 47.817L67.2651 47.816ZM24.1243 20.4166L43.259 18.233L43.8652 23.5451L37.0681 24.3207L39.0104 41.3421L33.3557 41.9874L31.4133 24.966L24.7304 25.7286L24.1243 20.4166ZM51.0433 17.3448L70.178 15.1613L70.7841 20.4733L63.9871 21.2489L65.9294 38.2703L60.2747 38.9156L58.3323 21.8942L51.6494 22.6568L51.0433 17.3448Z" fill="white"/>
<path d="M43.259 18.233L24.1243 20.4166L24.7304 25.7286L31.4133 24.966L33.3557 41.9874L39.0104 41.3421L37.0681 24.3207L43.8652 23.5451L43.259 18.233Z" fill="black"/>
<path d="M70.178 15.1613L51.0433 17.3448L51.6494 22.6568L58.3323 21.8942L60.2747 38.9156L65.9294 38.2703L63.9871 21.2489L70.7841 20.4733L70.178 15.1613Z" fill="black"/>
</svg>
