<svg width="14" height="16" viewBox="0 0 14 16" fill="none" xmlns="http://www.w3.org/2000/svg">
    <path d="M0 6.44C0 4.16204 0 3.02306 0.450346 2.1561C0.829848 1.42553 1.42553 0.829848 2.1561 0.450346C3.02306 0 4.16204 0 6.44 0H7.56C9.83796 0 10.9769 0 11.8439 0.450346C12.5745 0.829848 13.1702 1.42553 13.5497 2.1561C14 3.02306 14 4.16204 14 6.44V9.56C14 11.838 14 12.9769 13.5497 13.8439C13.1702 14.5745 12.5745 15.1702 11.8439 15.5497C10.9769 16 9.83796 16 7.56 16H6.44C4.16204 16 3.02306 16 2.1561 15.5497C1.42553 15.1702 0.829848 14.5745 0.450346 13.8439C0 12.9769 0 11.838 0 9.56V6.44Z" fill="#FFF02A"/>
    <path fill-rule="evenodd" clip-rule="evenodd" d="M6.2 4.75H3V3.25H6.2V4.75ZM11 8.75H3V7.25H11V8.75ZM10 12.75H3V11.25H10V12.75Z" fill="#B0A400"/>
</svg>