<svg width="18" height="17" viewBox="0 0 18 17" fill="none" xmlns="http://www.w3.org/2000/svg">
<mask id="mask0_1448_115" style="mask-type:alpha" maskUnits="userSpaceOnUse" x="0" y="0" width="18" height="17">
<path d="M0.5 6.44C0.5 4.16204 0.5 3.02306 0.950346 2.1561C1.32985 1.42553 1.92553 0.829848 2.6561 0.450346C3.52306 0 4.66204 0 6.94 0H11.06C13.338 0 14.4769 0 15.3439 0.450346C16.0745 0.829848 16.6702 1.42553 17.0497 2.1561C17.5 3.02306 17.5 4.16204 17.5 6.44V10.56C17.5 12.838 17.5 13.9769 17.0497 14.8439C16.6702 15.5745 16.0745 16.1702 15.3439 16.5497C14.4769 17 13.338 17 11.06 17H6.94C4.66204 17 3.52306 17 2.6561 16.5497C1.92553 16.1702 1.32985 15.5745 0.950346 14.8439C0.5 13.9769 0.5 12.838 0.5 10.56V6.44Z" fill="#8EBFFF"/>
</mask>
<g mask="url(#mask0_1448_115)">
<path d="M0.5 6.44C0.5 4.16204 0.5 3.02306 0.950346 2.1561C1.32985 1.42553 1.92553 0.829848 2.6561 0.450346C3.52306 0 4.66204 0 6.94 0H11.06C13.338 0 14.4769 0 15.3439 0.450346C16.0745 0.829848 16.6702 1.42553 17.0497 2.1561C17.5 3.02306 17.5 4.16204 17.5 6.44V10.56C17.5 12.838 17.5 13.9769 17.0497 14.8439C16.6702 15.5745 16.0745 16.1702 15.3439 16.5497C14.4769 17 13.338 17 11.06 17H6.94C4.66204 17 3.52306 17 2.6561 16.5497C1.92553 16.1702 1.32985 15.5745 0.950346 14.8439C0.5 13.9769 0.5 12.838 0.5 10.56V6.44Z" fill="#FFF02A"/>
<path d="M6 10.5C4.00887 10.3057 1 14.5 0.5 17H18.5V11.5C18.5 11.5 15.8783 7.84263 13.5 7.99999C11.1294 8.15685 9.25154 12.2015 9 12C9 12.5 7.22883 10.6199 6 10.5Z" fill="#B0A400"/>
<path d="M9.5 5.5C9.5 6.88071 8.38071 8 7 8C5.61929 8 4.5 6.88071 4.5 5.5C4.5 4.11929 5.61929 3 7 3C8.38071 3 9.5 4.11929 9.5 5.5Z" fill="#B0A400"/>
</g>
</svg>
