<svg width="512" height="512" viewBox="0 0 512 512" fill="none" xmlns="http://www.w3.org/2000/svg">
    <path d="M19.7583 224.029C32.5843 211.196 55.2402 197.811 97.293 185.898C148.499 171.481 190.86 163.086 256.035 163C318.937 162.98 354.603 168.029 415.021 185.602C483.252 205.43 502.202 232.648 507.452 247.131C513.746 264.421 512.689 279.588 509.206 297.075C507.153 306.933 504.197 316.581 500.375 325.897C500 326.837 499.659 327.718 499.357 328.507C497.569 333.227 494.856 340.373 486.248 344.252C480.518 346.855 473.599 347.375 462.028 347.447C438.314 347.611 395.775 337.697 376.878 330.834C364.157 326.192 355.753 323.135 349.32 316.712C341.797 309.185 339.78 299.593 338.111 288.732C337.795 286.694 337.526 284.716 337.263 282.796C335.693 271.219 334.891 268.221 330.778 265.552C322.499 260.2 291.287 250.839 255.411 250.878C219.535 250.917 189.599 260.384 181.3 265.769C177.009 268.55 176.214 271.633 174.611 283.598C174.381 285.314 174.151 287.082 173.875 288.897C172.081 301.118 170.235 310.342 162.889 317.692L162.849 317.731C156.456 324.128 148.21 326.83 134.569 331.327C116.775 337.191 73.658 348.104 49.8588 347.999C38.2877 347.953 31.3688 347.46 25.6391 344.87C17.0117 340.971 14.3308 333.832 12.4976 329.092C12.1953 328.303 11.8668 327.435 11.4857 326.488C7.69683 317.163 4.77366 307.508 2.75318 297.647C-0.709596 280.206 -1.72148 265.032 4.593 247.709C7.79011 238.768 12.9757 230.671 19.7583 224.029Z" fill="white"/>
</svg>
