<?xml version="1.0" standalone="no"?>
<!DOCTYPE svg PUBLIC "-//W3C//DTD SVG 20010904//EN"
 "http://www.w3.org/TR/2001/REC-SVG-20010904/DTD/svg10.dtd">
<svg version="1.0" xmlns="http://www.w3.org/2000/svg"
 width="217.000000pt" height="217.000000pt" viewBox="0 0 217.000000 217.000000"
 preserveAspectRatio="xMidYMid meet">
<metadata>
Created by potrace 1.14, written by Peter Selinger 2001-2017
</metadata>
<g transform="translate(0.000000,217.000000) scale(0.100000,-0.100000)"
fill="#000000" stroke="none">
<path d="M1015 1849 c-396 -51 -719 -96 -744 -105 -23 -9 -65 -35 -91 -58 -26
-22 -64 -54 -84 -69 -41 -32 -80 -103 -89 -163 -9 -56 124 -722 154 -770 29
-47 92 -99 138 -112 54 -17 106 -15 280 9 94 12 157 17 164 11 7 -5 106 -82
222 -172 116 -89 217 -169 226 -177 15 -13 20 -8 49 41 28 50 34 55 52 45 11
-6 21 -9 22 -7 2 2 50 84 106 183 57 99 108 186 114 192 6 7 81 22 166 33 179
24 228 39 284 90 23 20 56 47 74 59 49 34 89 95 103 155 11 50 7 72 -55 377
-36 178 -74 344 -82 368 -38 100 -131 162 -244 160 -36 -1 -380 -42 -765 -90z
m863 12 c81 -41 88 -59 167 -441 71 -347 73 -373 33 -438 -11 -18 -37 -44 -57
-58 -38 -24 -51 -27 -391 -74 l-85 -12 -125 -218 c-76 -132 -129 -215 -135
-211 -5 5 -105 82 -222 173 l-211 164 -189 -25 c-222 -29 -247 -26 -309 31
-55 50 -55 52 -134 450 -56 283 -59 311 -49 355 15 58 80 127 130 138 72 16
1408 183 1472 184 49 1 78 -4 105 -18z"/>
<path d="M1391 1609 c-118 -16 -216 -31 -218 -33 -3 -3 -1 -33 4 -68 9 -71 0
-66 112 -57 l55 4 30 -192 c17 -105 34 -194 37 -197 5 -5 179 13 187 19 1 1
-11 87 -28 191 -17 104 -28 193 -26 200 2 6 37 14 76 18 l72 7 -7 62 c-4 34
-9 65 -12 70 -6 11 -48 7 -282 -24z"/>
<path d="M747 1527 l-238 -32 6 -60 c4 -33 10 -64 12 -68 3 -5 40 -6 82 -2
l76 7 30 -192 c19 -128 34 -194 43 -197 14 -6 170 12 178 20 2 2 -9 91 -26
197 -17 106 -29 194 -27 196 2 2 34 8 71 13 38 5 71 12 73 15 3 3 2 34 -3 68
-6 44 -14 63 -24 64 -8 1 -122 -12 -253 -29z"/>
</g>
</svg>
