<svg width="18" height="17" viewBox="0 0 18 17" fill="none" xmlns="http://www.w3.org/2000/svg">
<path d="M0.5 4.25C0.5 3.46009 0.5 3.06513 0.56533 2.73669C0.833613 1.38794 1.88794 0.333613 3.23669 0.0653301C3.56513 0 3.96009 0 4.75 0V0C5.53991 0 5.93487 0 6.26331 0.0653301C7.61205 0.333613 8.66639 1.38794 8.93467 2.73669C9 3.06513 9 3.46009 9 4.25V5.95C9 6.73991 9 7.13487 8.93467 7.46331C8.66639 8.81206 7.61205 9.86639 6.26331 10.1347C5.93487 10.2 5.53991 10.2 4.75 10.2V10.2C3.96009 10.2 3.56513 10.2 3.23669 10.1347C1.88794 9.86639 0.833613 8.81206 0.56533 7.46331C0.5 7.13487 0.5 6.73991 0.5 5.95V4.25Z" fill="#B0A400"/>
<path d="M0.5 9.63333C0.5 7.0063 0.5 5.69279 1.01039 4.71025C1.44049 3.88226 2.1156 3.20716 2.94358 2.77705C3.92613 2.26666 5.21698 2.26666 7.79867 2.26666H10.2013C12.783 2.26666 14.0739 2.26666 15.0564 2.77705C15.8844 3.20716 16.5595 3.88226 16.9896 4.71025C17.5 5.69279 17.5 7.0063 17.5 9.63333V9.63333C17.5 12.2604 17.5 13.5739 16.9896 14.5564C16.5595 15.3844 15.8844 16.0595 15.0564 16.4896C14.0739 17 12.783 17 10.2013 17H7.79867C5.21698 17 3.92613 17 2.94358 16.4896C2.1156 16.0595 1.44049 15.3844 1.01039 14.5564C0.5 13.5739 0.5 12.2604 0.5 9.63333V9.63333Z" fill="#FFF02A"/>
<path fill-rule="evenodd" clip-rule="evenodd" d="M3.89844 10.2H13.5318V11.3333H3.89844V10.2Z" fill="#B0A400"/>
</svg>
