<svg viewBox="0 0 1792 734" fill="none" xmlns="http://www.w3.org/2000/svg">
<path fill-rule="evenodd" clip-rule="evenodd" d="M915.9 727.935C921.787 732.817 929.515 734.877 937.051 733.575C944.587 732.273 951.176 727.738 955.083 721.164L977.941 682.712C983.605 686.752 990.675 688.384 997.582 687.19C1005.12 685.888 1011.71 681.353 1015.61 674.78L1088.74 551.762L1638.29 489.091C1671.77 485.273 1699.75 466.048 1715.96 439.299C1764.2 425.45 1796.81 378.407 1790.93 326.885L1764.25 92.9647C1757.7 35.5466 1705.85 -5.69172 1648.43 0.856326L153.94 171.29C120.458 175.109 92.4781 194.333 76.2666 221.083C28.0254 234.932 -4.57497 281.974 1.30066 333.496L27.9773 567.417C34.5253 624.835 86.3801 666.073 143.798 659.525L750.01 590.392L915.9 727.935ZM156.906 197.266L1651.4 26.8321C1694.46 21.9211 1733.35 52.8498 1738.26 95.9134L1764.94 329.834C1765.5 334.755 1765.59 339.621 1765.26 344.388C1765.15 345.816 1765.01 347.234 1764.84 348.643C1764.65 350.1 1764.43 351.546 1764.16 352.98C1763.92 354.324 1763.63 355.658 1763.32 356.98C1763.02 358.219 1762.69 359.449 1762.34 360.667C1757.02 378.936 1745.17 394.689 1729.22 404.897C1719.45 411.143 1708.15 415.313 1695.86 416.715L1098.06 484.889L993.128 661.413L971.043 643.102L818.655 516.752L201.365 587.149C158.302 592.06 119.411 561.131 114.5 518.068L87.8231 284.147C87.1221 278.001 87.1513 271.94 87.8416 266.05C87.8783 265.736 87.917 265.422 87.9575 265.109C90.5093 245.382 100.484 227.644 115.267 215.182C126.681 205.561 140.962 199.084 156.906 197.266Z" fill="black"/>
<path d="M87.8249 284.132L114.502 518.052C119.413 561.116 158.304 592.045 201.367 587.134L818.657 516.737L971.05 643.09L993.13 661.397L1098.06 484.873L1695.86 416.699C1696.72 416.601 1697.58 416.489 1698.43 416.363L1698.44 416.362C1709.74 414.7 1720.14 410.687 1729.22 404.881C1745.17 394.676 1757.02 378.93 1762.34 360.667C1762.69 359.449 1763.02 358.219 1763.32 356.98C1763.63 355.658 1763.92 354.324 1764.16 352.98C1764.43 351.546 1764.65 350.1 1764.84 348.643C1765.01 347.234 1765.15 345.816 1765.26 344.388C1765.59 339.626 1765.5 334.765 1764.94 329.849L1738.26 95.9288C1733.35 52.8652 1694.46 21.9364 1651.4 26.8475L156.904 197.282C140.97 199.099 126.697 205.568 115.286 215.18C100.495 227.64 90.5137 245.379 87.9575 265.109C87.917 265.422 87.8783 265.736 87.8416 266.05C87.153 271.935 87.1245 277.991 87.8249 284.132Z" fill="white"/>
<path d="M358.422 330.149C371.59 328.647 382.296 330.937 390.537 337.018C398.932 342.906 403.781 351.568 405.085 363.004L411.784 421.744C412.199 425.383 413.879 427.035 416.825 426.699C419.597 426.382 423.432 423.839 428.329 419.068L430.226 435.702C421.908 442.794 414.196 446.745 407.092 447.555C398.428 448.544 392.689 445.161 389.874 437.408C380.733 446.524 370.704 451.705 359.788 452.95C351.644 453.879 344.484 451.887 338.307 446.975C332.283 441.869 328.827 435.418 327.937 427.62C326.771 417.397 329.858 409.059 337.196 402.605C344.708 396.131 360.042 387.449 383.198 376.559L382.457 370.061C380.916 356.545 373.127 350.588 359.092 352.189C345.23 353.769 333.659 361.584 324.378 375.631L321.503 350.42C329.308 338.822 341.614 332.065 358.422 330.149ZM350.855 420.794C351.389 425.472 353.393 429.193 356.867 431.957C360.342 434.72 364.505 435.825 369.357 435.271C376.115 434.501 382.507 430.525 388.533 423.343L384.65 389.294C371.802 395.148 362.756 400.48 357.512 405.29C352.442 410.081 350.223 415.249 350.855 420.794Z" fill="black"/>
<path d="M438.814 262.003L461.946 259.365L482.161 436.625L459.029 439.263L438.814 262.003Z" fill="black"/>
<path d="M504.767 254.482L528.159 251.814L548.373 429.074L524.981 431.742L504.767 254.482ZM587.827 306.357L615.378 303.215L571.446 365.886L638.823 418.759L607.893 422.286L542.625 369.436L587.827 306.357Z" fill="black"/>
<path d="M642.848 254.532C645.131 251.464 648.179 249.712 651.991 249.277C655.803 248.842 659.166 249.863 662.082 252.339C665.151 254.622 666.892 257.583 667.307 261.221C667.722 264.86 666.702 268.224 664.245 271.312C661.963 274.381 658.915 276.133 655.103 276.568C651.291 277.002 647.927 275.982 645.012 273.506C642.077 270.857 640.412 267.799 640.017 264.334C639.621 260.868 640.565 257.601 642.848 254.532ZM646.157 299.704L669.289 297.066L682.598 413.767L659.465 416.405L646.157 299.704Z" fill="black"/>
<path d="M770.583 283.145C783.058 281.722 793.246 284.861 801.145 292.561C809.044 300.261 813.873 311.822 815.632 327.243L823.664 397.679L800.532 400.317L792.559 330.401C790.287 310.475 781.18 301.42 765.239 303.238C754.149 304.503 745.415 311.028 739.035 322.814L748.55 406.245L725.418 408.883L712.109 292.183L735.241 289.545L736.931 304.36C741.15 298.262 746.298 293.375 752.373 289.698C758.621 286.001 764.691 283.817 770.583 283.145Z" fill="black"/>
<path d="M944.452 265.686L946.497 283.62L922.585 286.347C931.441 291.656 936.481 299.683 937.706 310.426C938.911 320.995 936.664 329.765 930.964 336.734C925.438 343.683 917.422 348.81 906.916 352.114C906.069 352.386 904.029 352.97 900.796 353.865C897.737 354.741 895.63 355.508 894.477 356.166C893.303 356.651 891.716 357.358 889.716 358.288C887.716 359.219 886.352 360.34 885.624 361.651C885.049 362.77 884.851 364.109 885.029 365.669C885.74 371.906 896.323 375.439 916.779 376.265C943.437 377.613 957.814 387.471 959.908 405.838C961.213 417.274 957.205 426.771 947.887 434.328C938.588 442.059 925.621 446.872 908.987 448.769C891.313 450.785 877.508 449.024 867.574 443.487C857.813 437.93 852.339 429.954 851.154 419.557C850.245 411.586 851.64 404.582 855.34 398.543C859.059 392.677 866.228 387.823 876.848 383.979C868.517 380.189 864.056 375.696 863.463 370.498C862.554 362.527 868.043 356.021 879.931 350.979C861.966 345.831 852.006 334.68 850.05 317.526C848.647 305.223 852.122 294.91 860.476 286.585C868.809 278.087 881.38 272.879 898.188 270.962L944.452 265.686ZM870.932 315.934C871.682 322.519 874.528 327.46 879.468 330.758C884.581 334.037 890.17 335.33 896.234 334.639C902.992 333.868 908.233 331.34 911.957 327.053C915.854 322.747 917.397 317.042 916.587 309.938C915.935 304.22 913.216 299.615 908.429 296.124C903.643 292.632 897.958 291.262 891.373 292.013C884.789 292.764 879.568 295.466 875.71 300.118C871.833 304.598 870.24 309.87 870.932 315.934ZM872.897 416.288C874.241 428.07 885.656 432.736 907.142 430.286C928.801 427.816 938.979 420.863 937.675 409.427C937.003 403.536 932.927 399.349 925.447 396.867C918.161 394.538 908.799 394.026 897.363 395.33C889.912 396.18 883.766 398.461 878.923 402.172C874.274 406.038 872.265 410.743 872.897 416.288Z" fill="black"/>
<path d="M1230.32 230.716C1245.22 229.016 1258.05 232.995 1268.81 242.651C1279.56 252.307 1286.01 266.492 1288.14 285.206L1288.41 287.545L1206.28 296.911C1208.41 307.902 1213.15 316.401 1220.5 322.408C1228.01 328.222 1237.23 330.506 1248.14 329.261C1263.39 327.522 1276.97 321.147 1288.88 310.134L1291.46 332.747C1278.64 343.511 1264 349.832 1247.54 351.709C1231.43 353.547 1217.11 349.563 1204.58 339.758C1192.03 329.78 1184.69 315.434 1182.56 296.72C1180.58 279.393 1183.89 264.534 1192.48 252.145C1201.25 239.736 1213.86 232.593 1230.32 230.716ZM1205.22 283.077L1263.96 276.378C1262.42 267.427 1258.93 260.716 1253.51 256.244C1248.06 251.599 1241.01 249.771 1232.34 250.759C1224.2 251.687 1217.59 255.25 1212.5 261.447C1207.41 267.644 1204.99 274.854 1205.22 283.077Z" fill="black"/>
<path d="M1363.79 215.495C1378.69 213.795 1391.52 217.774 1402.28 227.43C1413.03 237.086 1419.48 251.271 1421.61 269.985L1421.88 272.324L1339.74 281.69C1341.88 292.681 1346.62 301.18 1353.97 307.187C1361.48 313.001 1370.69 315.285 1381.61 314.04C1396.86 312.301 1410.44 305.926 1422.35 294.914L1424.92 317.526C1412.11 328.29 1397.47 334.611 1381.01 336.488C1364.9 338.326 1350.58 334.342 1338.05 324.537C1325.5 314.559 1318.16 300.213 1316.03 281.499C1314.05 264.172 1317.36 249.313 1325.95 236.924C1334.72 224.515 1347.33 217.372 1363.79 215.495ZM1338.69 267.856L1397.43 261.157C1395.89 252.206 1392.4 245.495 1386.97 241.023C1381.53 236.378 1374.48 234.55 1365.81 235.538C1357.67 236.466 1351.05 240.029 1345.97 246.226C1340.88 252.423 1338.46 259.633 1338.69 267.856Z" fill="black"/>
<path d="M1508.95 198.94C1521.43 197.517 1531.62 200.656 1539.52 208.356C1547.42 216.056 1552.25 227.617 1554 243.038L1562.04 313.474L1538.9 316.112L1530.93 246.196C1528.66 226.269 1519.55 217.215 1503.61 219.033C1492.52 220.298 1483.79 226.823 1477.41 238.609L1486.92 322.04L1463.79 324.678L1450.48 207.978L1473.61 205.34L1475.3 220.155C1479.52 214.057 1484.67 209.17 1490.74 205.493C1496.99 201.796 1503.06 199.612 1508.95 198.94Z" fill="black"/>
<path d="M1588.04 220.726C1587.03 211.889 1589.67 204.217 1595.95 197.708C1602.4 191.18 1611 187.303 1621.74 186.078C1633.69 184.715 1645.84 186.577 1658.18 191.664L1660.82 214.796C1646.18 208.04 1634.45 205.166 1625.61 206.173C1620.58 206.746 1616.96 208.038 1614.73 210.047C1612.5 212.056 1611.53 214.274 1611.8 216.7C1612.16 219.819 1613.79 222.616 1616.71 225.092C1619.78 227.375 1626.66 230.803 1637.36 235.375C1643.82 238.148 1649.03 240.714 1652.99 243.072C1657.1 245.236 1661.27 248.71 1665.5 253.493C1669.73 258.276 1672.18 263.614 1672.85 269.505C1673.8 277.822 1671.38 285.822 1665.58 293.503C1659.79 301.185 1650.14 305.797 1636.62 307.338C1625.01 308.662 1611.61 306.592 1596.42 301.128L1593.57 276.176C1599.61 279.876 1606.26 282.803 1613.53 284.959C1620.8 287.114 1627.12 287.885 1632.49 287.273C1638.55 286.581 1642.94 285.028 1645.65 282.612C1648.36 280.197 1649.53 277.43 1649.18 274.311C1648.76 270.672 1646.93 267.721 1643.69 265.458C1640.43 263.022 1632.05 258.799 1618.55 252.791C1609.27 248.408 1602.09 243.874 1596.99 239.189C1591.87 234.331 1588.89 228.177 1588.04 220.726Z" fill="black"/>
<path fill-rule="evenodd" clip-rule="evenodd" d="M153.552 281.376L327.693 261.517L333.206 309.861L271.347 316.915L289.013 471.822L237.55 477.691L219.885 322.784L159.065 329.72L153.552 281.376ZM1019.51 182.621L1193.66 162.761L1199.17 211.105L1137.31 218.159L1154.98 373.067L1103.51 378.936L1085.85 224.028L1025.03 230.964L1019.51 182.621Z" fill="black"/>
<path d="M1657.82 143.929L1654.42 114.091L1641.86 115.523L1641.23 109.974L1672.8 106.374L1673.43 111.923L1660.97 113.344L1664.37 143.182L1657.82 143.929ZM1682.47 141.117L1678.44 105.731L1687.9 104.652L1699.79 128.914L1705.82 102.608L1715.28 101.529L1719.32 136.916L1713.04 137.632L1709.85 109.704L1703.4 138.731L1698.3 139.312L1685.57 112.474L1688.75 140.402L1682.47 141.117Z" fill="black"/>
</svg>
